<?xml version="1.0" encoding="UTF-8"?> <svg xmlns="http://www.w3.org/2000/svg" id="Layer_1" data-name="Layer 1" width="314" height="314" viewBox="0 0 314 314"><defs><style>.cls-1{fill:#fff;}.cls-2{fill:#00d2ff;}.cls-3{fill:#7f92ff;}.cls-4{fill:#000062;}.cls-5{fill:#5e1ad5;}.cls-6{fill:blue;}</style></defs><circle class="cls-1" cx="157" cy="157" r="157"></circle><path class="cls-2" d="M53.72,120.62l-1-.47c-.24.47-.47.95-.69,1.43l.93.48Q53.33,121.32,53.72,120.62Z"></path><path class="cls-2" d="M53.28,106.82l-1.56-1c-.24.35-.47.7-.7,1l1.47,1Z"></path><path class="cls-2" d="M53,114l-.94-.52c-.23.4-.47.8-.69,1.21l.86.5C52.46,114.76,52.72,114.37,53,114Z"></path><path class="cls-2" d="M56.53,115.92l-1.2-.66-.75,1.3,1.13.67C56,116.79,56.25,116.35,56.53,115.92Z"></path><path class="cls-2" d="M54.74,127.31l-.63-.23c-.18.45-.36.91-.53,1.38l.53.23Q54.41,128,54.74,127.31Z"></path><path class="cls-2" d="M54.61,109.3l1.12.75c.27-.36.56-.72.84-1.08l-1.19-.78Z"></path><path class="cls-2" d="M48.26,111.38l-.62,1.09,1.26.75.7-1.11Z"></path><path class="cls-2" d="M57.33,101.85l-1.75-1.34c-.35.44-.7.89-1,1.34l1.67,1.3c.19-.22.36-.45.55-.67Z"></path><path class="cls-2" d="M51.05,125.92l-.78-.29c-.15.39-.31.78-.46,1.18l.7.3C50.68,126.71,50.87,126.32,51.05,125.92Z"></path><path class="cls-2" d="M66.47,92.92l-2-2.11c-.63.6-1.26,1.19-1.87,1.8l2,2C65.18,94,65.82,93.47,66.47,92.92Z"></path><path class="cls-2" d="M62.48,108c.39-.45.79-.89,1.18-1.33l-1.51-1.15c-.37.45-.75.9-1.11,1.36Z"></path><path class="cls-2" d="M63.28,101.41c.5-.49,1-1,1.54-1.46L63.19,98.5c-.48.51-.95,1-1.43,1.57Z"></path><path class="cls-2" d="M61,113.59l1.44,1,.92-1.21-1.54-1C61.5,112.77,61.23,113.18,61,113.59Z"></path><path class="cls-2" d="M59.93,111.15l-1.38-.89-.81,1.16,1.31.88C59.34,111.91,59.63,111.53,59.93,111.15Z"></path><path class="cls-2" d="M59.1,103.2c-.19.24-.4.48-.59.73s-.32.42-.48.63l1.32,1,1.17-1.3Z"></path><path class="cls-2" d="M50,118.91l-.7-.33c-.21.43-.41.87-.61,1.31l.61.3C49.52,119.76,49.75,119.33,50,118.91Z"></path><path class="cls-2" d="M58.41,97.11l1.82,1.61c.5-.51,1-1,1.5-1.52l-1.91-1.7C59.34,96,58.88,96.57,58.41,97.11Z"></path><path class="cls-2" d="M60.08,117.88l-1.29-.72c-.27.47-.52,1-.78,1.42l1.17.69C59.47,118.8,59.77,118.34,60.08,117.88Z"></path><path class="cls-2" d="M57.36,122.29l-1-.46c-.25.53-.49,1.06-.73,1.59l.86.44C56.77,123.33,57.06,122.81,57.36,122.29Z"></path><path class="cls-2" d="M72.89,99.58q-.9.81-1.77,1.65l1.7,1.71c.57-.55,1.15-1.09,1.74-1.63Z"></path><path class="cls-2" d="M75,93.26c-.76.57-1.51,1.15-2.24,1.74l3.9,4.48c.68-.58,1.38-1.14,2.09-1.69Z"></path><path class="cls-2" d="M47.19,124.46l-.42-.16c-.14.34-.26.68-.39,1l.36.16C46.88,125.13,47,124.8,47.19,124.46Z"></path><path class="cls-2" d="M74.62,82.47c-1,.67-1.89,1.36-2.82,2.06L74,87.36c.94-.62,1.9-1.22,2.86-1.8Z"></path><path class="cls-2" d="M68.84,103.54c-.48.51-1,1-1.41,1.55l1.77,1.56.15-.16c.42-.46.85-.91,1.28-1.36Z"></path><path class="cls-2" d="M80.16,78.89c-1.13.68-2.24,1.38-3.34,2.1l8.29,12.37c.94-.59,1.89-1.16,2.86-1.7Z"></path><path class="cls-2" d="M124.8,67a89.63,89.63,0,0,0-37.22,8l6.84,13.37a75.26,75.26,0,0,1,56.33-1.8L156,72.54A89.86,89.86,0,0,0,124.8,67Z"></path><path class="cls-2" d="M86,75.78c-1.32.63-2.64,1.3-3.93,2l7.6,13c1.08-.57,2.17-1.12,3.28-1.64Z"></path><path class="cls-2" d="M77.48,86.47c-.93.62-1.85,1.25-2.75,1.9l6,7.9c.81-.58,1.64-1.15,2.47-1.71Z"></path><path class="cls-2" d="M43.3,124c.12-.27.23-.56.35-.83l-.88-.34c-.11.27-.21.54-.31.81Z"></path><path class="cls-2" d="M66.11,101.1c-.49.51-1,1-1.45,1.53L66.22,104l1.52-1.46Z"></path><path class="cls-2" d="M64,109.21l1.64,1.27c.39-.45.79-.91,1.19-1.35l-1.73-1.33C64.76,108.27,64.39,108.73,64,109.21Z"></path><path class="cls-2" d="M44.86,117.94l1.06.54c.2-.39.39-.78.6-1.17l-1.12-.51Z"></path><path class="cls-2" d="M72.41,90.11c-.77.6-1.54,1.21-2.28,1.84L72,94.06c.77-.57,1.56-1.11,2.35-1.65Z"></path><path class="cls-2" d="M67.63,94.13c-.62.56-1.23,1.14-1.83,1.73l1.69,1.71c.63-.54,1.28-1.07,1.93-1.59Z"></path><path class="cls-2" d="M72.13,98.79,70.4,97c-.61.55-1.22,1.1-1.82,1.66l1.66,1.68C70.86,99.81,71.49,99.3,72.13,98.79Z"></path><path class="cls-2" d="M71.51,89l-2.13-2.58c-.79.64-1.56,1.3-2.32,2l2.06,2.37C69.91,90.2,70.71,89.61,71.51,89Z"></path><path class="cls-3" d="M178.28,228.67l-1.46-1.94c-.59.4-1.17.81-1.76,1.2l1.52,2C177.16,229.54,177.72,229.1,178.28,228.67Z"></path><path class="cls-3" d="M175.58,225.09l-1.21-1.6c-.59.39-1.19.77-1.79,1.14l1.3,1.74Z"></path><path class="cls-3" d="M179,212l-1.27-1.29c-.37.34-.75.65-1.13,1l1.37,1.34Z"></path><path class="cls-3" d="M171.53,223.24c.58-.4,1.15-.81,1.72-1.23L172,220.37c-.59.39-1.18.77-1.78,1.14Z"></path><path class="cls-3" d="M173.32,232.26,171.8,230c-.74.43-1.48.85-2.23,1.26l1.57,2.47C171.88,233.22,172.6,232.74,173.32,232.26Z"></path><path class="cls-3" d="M183,224.75l-1.36-1.58-.82.66-.52.39,1.43,1.63C182.12,225.48,182.56,225.13,183,224.75Z"></path><path class="cls-3" d="M179.36,222.07c.25-.21.49-.43.73-.65L179,220.16c-.46.36-.92.7-1.38,1.05l1.16,1.33Z"></path><path class="cls-3" d="M182.86,207.77l-1.09-1c-.37.38-.73.78-1.11,1.16l1.2,1Z"></path><path class="cls-3" d="M181.69,214.76l-1.06-1.08-1.06.94,1.13,1.1Z"></path><path class="cls-3" d="M184.34,217.46l-.94-1-1,.89,1,1Z"></path><path class="cls-3" d="M172.35,215.2l1.48,1.68,1.34-1.16-1.41-1.62C173.29,214.47,172.83,214.84,172.35,215.2Z"></path><path class="cls-3" d="M165.8,231.46,164.42,229c-.88.41-1.76.8-2.66,1.17l1.42,2.63C164.06,232.39,164.93,231.93,165.8,231.46Z"></path><path class="cls-3" d="M157.9,236.44l1.55,3.47c1.09-.48,2.16-1,3.22-1.5l-1.56-3.19C160.05,235.65,159,236.06,157.9,236.44Z"></path><path class="cls-3" d="M146.27,228.87c-1.2.36-2.4.69-3.62,1l4.18,14.42c1.46-.37,2.91-.77,4.34-1.21Z"></path><path class="cls-3" d="M168.64,225.15l-1.29-2c-.71.4-1.44.78-2.17,1.15l1.33,2.08C167.23,226,167.94,225.59,168.64,225.15Z"></path><path class="cls-3" d="M177.61,218.54l-1.17-1.34c-.46.36-.93.71-1.4,1.06l1.23,1.4Z"></path><path class="cls-3" d="M170.82,228.45l-1.32-2c-.74.41-1.47.8-2.22,1.19l1.38,2.16C169.39,229.36,170.1,228.92,170.82,228.45Z"></path><path class="cls-3" d="M168.11,235.52l-1.56-2.74c-.89.45-1.8.87-2.71,1.28l1.58,2.94C166.33,236.52,167.22,236,168.11,235.52Z"></path><path class="cls-3" d="M164.59,223.43c.7-.41,1.39-.84,2.07-1.28l-1.34-2q-1,.64-2,1.26Z"></path><path class="cls-3" d="M197.71,206.12l.79.5c.15-.22.28-.44.41-.66l-.73-.52C198,205.67,197.87,205.9,197.71,206.12Z"></path><path class="cls-3" d="M194.78,211.92l.72-1-.92-.72-.78,1Z"></path><path class="cls-3" d="M169.35,220.34,171,219.1l-1.45-1.93-.4.29h0l-1.31.92Z"></path><path class="cls-3" d="M195.42,203.51l-.32-.22c-.19.28-.39.55-.59.83l.38.24Z"></path><path class="cls-3" d="M161.24,229.22c.86-.41,1.71-.84,2.55-1.28l-2.94-5.17c-.8.43-1.6.85-2.41,1.26Z"></path><path class="cls-3" d="M185.76,210.36l-.91-.81c-.34.36-.68.72-1,1.07l1,.83Z"></path><path class="cls-3" d="M153.25,242.37c1.27-.45,2.52-.92,3.76-1.43l-5.69-13.77c-1.06.4-2.13.77-3.21,1.13Z"></path><path class="cls-3" d="M157.45,235.43c1-.43,2.08-.88,3.1-1.34l-4.37-9c-.92.42-1.86.83-2.8,1.22Z"></path><path class="cls-3" d="M141.05,230.22a75.07,75.07,0,0,1-55.57-9.34l-7.86,12.78A89.57,89.57,0,0,0,124.8,247a90.82,90.82,0,0,0,20.33-2.31Z"></path><path class="cls-3" d="M188.55,212.87l-.74-.66c-.31.33-.63.66-.95,1l.81.68C188,213.54,188.26,213.21,188.55,212.87Z"></path><path class="cls-3" d="M188.3,207.21c.31-.4.62-.81.92-1.22l-.74-.58-1,1.2Z"></path><path class="cls-3" d="M187.37,220.53l-1.23-1.24-.94.84,1.3,1.28Z"></path><path class="cls-3" d="M186.12,203.55l-.84-.67c-.37.44-.76.87-1.14,1.3l1,.72C185.46,204.45,185.8,204,186.12,203.55Z"></path><path class="cls-3" d="M192.35,201.37l-.52-.37-.72,1,.6.38Z"></path><path class="cls-3" d="M189.8,215.67l1.16,1c.27-.3.52-.62.78-.92l-1.07-1Z"></path><path class="cls-3" d="M191.33,209.41c.28-.36.54-.73.82-1.1l-.54-.42-.89,1.08Z"></path><path class="cls-3" d="M188.49,198.67c-.27.39-.54.78-.82,1.16l.67.42c.25-.39.5-.77.74-1.17Z"></path><path class="cls-4" d="M135.4,167.6a15,15,0,1,1,0-21.2L146,135.79a30,30,0,1,0,0,42.42Z"></path><path class="cls-4" d="M260.93,167.6a15,15,0,1,1,0-21.2l10.61-10.61a30,30,0,1,0,0,42.42Z"></path><rect class="cls-4" x="152.93" y="130.01" width="15" height="53.99"></rect><polygon class="cls-4" points="216.56 130.01 176.5 130.01 176.5 145 197.63 145 189.03 149.92 189.03 183.99 204.03 183.99 204.03 145 216.56 145 216.56 130.01"></polygon><path class="cls-5" d="M94.92,191.15c-.53-.41-1-.82-1.56-1.25l-1.48,1.55c.49.5,1,1,1.5,1.44Z"></path><path class="cls-5" d="M90.17,187l-1.26,1.09c.44.56.89,1.1,1.36,1.63l1.39-1.29C91.16,188,90.66,187.48,90.17,187Z"></path><path class="cls-5" d="M96.33,197c-.62-.36-1.22-.73-1.82-1.11l-1.33,1.69c.58.46,1.18.92,1.79,1.36Z"></path><path class="cls-5" d="M85.09,187.62c-.41-.48-.82-1-1.22-1.47l-.61.44q.52.81,1.08,1.59Z"></path><path class="cls-5" d="M92.18,194.26c-.58-.43-1.15-.87-1.71-1.33l-1.14,1.19c.53.52,1.07,1,1.61,1.54Z"></path><path class="cls-5" d="M87.55,192.21l1-1c-.53-.5-1.06-1-1.57-1.53l-.9.78C86.58,191.09,87.06,191.65,87.55,192.21Z"></path><path class="cls-5" d="M149.73,194.46A44.77,44.77,0,0,1,124.8,202a45.67,45.67,0,0,1-8.15-.74L113.76,216a59.95,59.95,0,0,0,44.29-9Z"></path><path class="cls-5" d="M77.79,190.55l-.87.63c.38.56.78,1.12,1.18,1.68l1-.72Q78.41,191.36,77.79,190.55Z"></path><path class="cls-5" d="M112.31,200.24l-4.13,14.31c1,.33,2,.63,3.08.9l1.13.25,3-14.69C114.35,200.78,113.33,200.53,112.31,200.24Z"></path><path class="cls-5" d="M81.28,194.7l-1,.91q.78.94,1.59,1.86L83,196.42C82.39,195.86,81.83,195.28,81.28,194.7Z"></path><path class="cls-5" d="M95.46,194.66c.53.42,1.08.84,1.64,1.24l1.55-2.2c-.55-.34-1.09-.68-1.62-1Z"></path><path class="cls-5" d="M99.36,201.69l1.4-2.53c-.75-.31-1.48-.65-2.21-1l-1.42,2.22C97.86,200.83,98.61,201.27,99.36,201.69Z"></path><path class="cls-5" d="M82.07,189.88c-.42-.5-.84-1-1.24-1.53l-.59.43c.36.55.74,1.09,1.13,1.63Z"></path><path class="cls-5" d="M88.42,185.13c-.41-.46-.81-.93-1.2-1.4l-.93.67c.33.53.68,1,1,1.55Z"></path><path class="cls-5" d="M102.09,208.61c-1-.38-2-.79-3-1.24l-1.36,2.69c1,.56,2.06,1.1,3.12,1.6Z"></path><path class="cls-5" d="M107.6,210.32c-1.19-.3-2.36-.63-3.52-1l-1.27,3.24q1.8.78,3.66,1.44Z"></path><path class="cls-5" d="M103.77,204.65c-1-.31-1.92-.64-2.84-1l-1.29,2.54c1,.49,1.91,1,2.89,1.39Z"></path><path class="cls-5" d="M110.84,199.78c-.9-.29-1.79-.6-2.66-.95l-3.74,9.56c1.11.44,2.24.84,3.38,1.21Z"></path><path class="cls-5" d="M99.13,197.25c.66.41,1.34.81,2,1.19l1.31-2.37c-.63-.36-1.26-.74-1.87-1.13Z"></path><path class="cls-5" d="M85.79,193.83c-.56-.53-1.1-1.07-1.63-1.63l-.85.74c.49.6,1,1.19,1.52,1.77Z"></path><path class="cls-5" d="M101.39,202.74c.88.42,1.78.82,2.68,1.18l2.45-5.79c-.76-.34-1.5-.7-2.24-1.08Z"></path><path class="cls-5" d="M91.78,203.44c-.35-.22-.69-.43-1-.66s-.72-.51-1.08-.76l-1.35,1.71c.69.57,1.38,1.11,2.09,1.65Z"></path><path class="cls-5" d="M89.64,197.14c-.61-.47-1.21-1-1.8-1.46l-1,1.09c.56.56,1.13,1.11,1.72,1.64Z"></path><path class="cls-5" d="M98.78,202.73c-.8-.37-1.6-.76-2.39-1.19l-1.27,2c.79.52,1.58,1,2.39,1.49Z"></path><path class="cls-5" d="M87.07,200.06c-.65-.51-1.28-1.05-1.9-1.59L84,199.74q.9.9,1.83,1.77Z"></path><path class="cls-5" d="M96.8,206.31c-.87-.43-1.72-.9-2.57-1.38l-1.39,2.18c.85.58,1.71,1.13,2.59,1.67Z"></path><path class="cls-5" d="M92.84,201.94l1.23-1.75c-.65-.4-1.31-.82-2-1.27l-1.21,1.53c.33.26.64.52,1,.77S92.51,201.7,92.84,201.94Z"></path><path class="cls-6" d="M118.24,107.5l-.15-1.21c-.8.08-1.59.18-2.37.31l.22,1.42C116.7,107.82,117.47,107.65,118.24,107.5Z"></path><path class="cls-6" d="M118.77,111.61l-.21-1.64c-.76.07-1.52.17-2.27.28l.29,1.85C117.31,111.92,118,111.75,118.77,111.61Z"></path><path class="cls-6" d="M87.34,110.32l2.43,3c.86-.79,1.75-1.54,2.66-2.26l-2-2.91C89.35,108.82,88.34,109.55,87.34,110.32Z"></path><path class="cls-6" d="M98.78,111.57,97.35,109c-.9.51-1.78,1-2.65,1.6l1.75,2.66C97.21,112.7,98,112.12,98.78,111.57Z"></path><path class="cls-6" d="M114.49,98.85l.25,1.57c.84-.18,1.68-.34,2.53-.49l-.18-1.4C116.22,98.61,115.36,98.73,114.49,98.85Z"></path><path class="cls-6" d="M101.36,105.23l-1.07-2.42c-.94.39-1.86.82-2.77,1.26l1.32,2.55C99.67,106.14,100.5,105.67,101.36,105.23Z"></path><path class="cls-6" d="M96.72,107.93l-1.51-2.69c-1,.54-2,1.11-2.95,1.71l1.85,2.79C95,109.11,95.83,108.5,96.72,107.93Z"></path><path class="cls-6" d="M120.57,98.27l.06,1.21c.76-.08,1.52-.15,2.29-.2l0-1.07C122.1,98.22,121.34,98.24,120.57,98.27Z"></path><path class="cls-6" d="M123.06,103l0-.74c-.75,0-1.49,0-2.24,0l0,.89C121.58,103.16,122.32,103.09,123.06,103Z"></path><path class="cls-6" d="M85.91,111.42c-.7.56-1.39,1.15-2.06,1.74l-1,1L93.38,124.8c.7-.69,1.43-1.35,2.17-2Z"></path><path class="cls-6" d="M123.37,110.92l0-1.15c-.71,0-1.42,0-2.12,0l.07,1.38C122,111.07,122.67,111,123.37,110.92Z"></path><path class="cls-6" d="M117.76,103.71l-.15-1.13c-.83.08-1.65.19-2.48.32l.21,1.32C116.14,104,117,103.86,117.76,103.71Z"></path><path class="cls-6" d="M123.21,106.79l0-.75c-.73,0-1.45,0-2.18,0l0,1Q122.13,106.88,123.21,106.79Z"></path><path class="cls-6" d="M111.82,101.15l-.39-1.76c-.87.17-1.72.37-2.58.58l.52,1.92C110.18,101.63,111,101.38,111.82,101.15Z"></path><path class="cls-6" d="M113.52,108.71l-.37-1.64q-1.14.24-2.25.54l.48,1.82C112.09,109.17,112.8,108.93,113.52,108.71Z"></path><path class="cls-6" d="M114.41,112.71l-.45-2c-.71.15-1.41.31-2.11.49l.59,2.21C113.09,113.14,113.75,112.91,114.41,112.71Z"></path><path class="cls-6" d="M99.28,112.45c-.81.48-1.61,1-2.39,1.51l3.47,5.25c.66-.43,1.35-.84,2-1.24Z"></path><path class="cls-6" d="M103,109l-1-2.25c-.85.37-1.68.77-2.51,1.19l1.24,2.39C101.48,109.82,102.24,109.38,103,109Z"></path><path class="cls-6" d="M105,113.57c-.7.32-1.4.66-2.08,1L104.2,117c.64-.33,1.28-.65,1.93-.94Z"></path><path class="cls-6" d="M81.83,115.15A59.75,59.75,0,0,0,64.8,157h15a44.85,44.85,0,0,1,12.67-31.29Z"></path><path class="cls-6" d="M93,111.8c-.94.65-1.86,1.34-2.75,2l6.51,8c.69-.55,1.4-1.08,2.13-1.6Z"></path><path class="cls-6" d="M105.71,103.23l.6-.23-.7-2.13c-.86.27-1.7.55-2.54.86l.87,2.26C104.53,103.73,105.12,103.47,105.71,103.23Z"></path><path class="cls-6" d="M104.61,112.6l-1-2.36q-1.16.53-2.28,1.11l1.29,2.5C103.25,113.42,103.92,113,104.61,112.6Z"></path><path class="cls-6" d="M107.54,106.76l-.63-1.91-.53.17c-.6.2-1.19.42-1.79.65l.8,2C106.1,107.38,106.81,107.06,107.54,106.76Z"></path><path class="cls-6" d="M110,114.31l-.78-2.37q-1,.32-1.95.69l1,2.48C108.83,114.83,109.42,114.56,110,114.31Z"></path><path class="cls-6" d="M108.77,110.5l-.67-2c-.72.24-1.43.49-2.13.77l.85,2.19C107.46,111.09,108.11,110.79,108.77,110.5Z"></path><path class="cls-6" d="M112.67,104.92l-.34-1.51c-.81.17-1.61.36-2.41.57l.46,1.69C111.13,105.4,111.9,105.15,112.67,104.92Z"></path></svg> 