<?xml version="1.0" encoding="UTF-8"?> <svg xmlns="http://www.w3.org/2000/svg" viewBox="0 0 900.07 496.16"><defs><style>.cls-1{fill:#5070ff}.cls-2{fill:#fd8256}</style></defs><g id="Layer_2" data-name="Layer 2"><g id="Layer_1-2" data-name="Layer 1"><path d="M9.39 491.71a38 38 0 0 1-3.59-4.08 3 3 0 0 1 1-4.54 105.34 105.34 0 0 0 19.34-12.52 49.63 49.63 0 0 0 12.37-15.15 3.06 3.06 0 0 0 .26-2 86.81 86.81 0 0 0-11.65-27.81 3.06 3.06 0 0 1 .91-4.15 35.9 35.9 0 0 1 10.65-4.87 3.05 3.05 0 0 1 3.57 1.68 103.15 103.15 0 0 1 5.53 15.65 76.38 76.38 0 0 1 2.92 18.24q0 11.22-9.62 23.55a80.51 80.51 0 0 1-23.68 20.08 3 3 0 0 1-3.08 0 28 28 0 0 1-4.93-4.08ZM68.5 377.74a32.17 32.17 0 0 1 12.74-3.4 3 3 0 0 1 3.22 3v81.29a3.06 3.06 0 0 1-1.46 2.63 27.82 27.82 0 0 1-7.56 3.15 3.29 3.29 0 0 1-.82.1 3 3 0 0 1-3-2.94q-.49-17.35-4.74-80.91a3.09 3.09 0 0 1 1.62-2.92Zm64.92 86.77q-23.08 0-33.51-1.64a3 3 0 0 1-2.57-2.66 46.46 46.46 0 0 1-.26-5.18 45.93 45.93 0 0 1 .36-5.82 3.05 3.05 0 0 1 3.68-2.61 81.48 81.48 0 0 0 12 1.72q7.05.53 16.62.58a3 3 0 0 0 3.05-2.64 43.41 43.41 0 0 0 .34-5.52 48.64 48.64 0 0 0-2.61-14.59 54.21 54.21 0 0 0-5.42-11.41 3 3 0 0 1 .78-4.06 29.28 29.28 0 0 1 10.65-4.68 3 3 0 0 1 3.32 1.58 71 71 0 0 1 7.74 32.42 107.48 107.48 0 0 1-.85 13 78.35 78.35 0 0 1-1.6 9.24 3 3 0 0 1-2.95 2.28Zm31.94-86.77a32.17 32.17 0 0 1 12.74-3.4 3 3 0 0 1 3.21 3v81.29a3.06 3.06 0 0 1-1.43 2.59 27.56 27.56 0 0 1-7.56 3.15 3.15 3.15 0 0 1-.81.1 3 3 0 0 1-3-2.94q-.51-17.35-4.74-80.91a3.09 3.09 0 0 1 1.59-2.88Zm23.73 113.97a38 38 0 0 1-3.59-4.08 3 3 0 0 1 1-4.54 105.34 105.34 0 0 0 19.34-12.52 49.63 49.63 0 0 0 12.37-15.15 3 3 0 0 0 .26-2 86.81 86.81 0 0 0-11.65-27.81 3.05 3.05 0 0 1 .92-4.15 35.85 35.85 0 0 1 10.64-4.87 3.05 3.05 0 0 1 3.57 1.68 103.15 103.15 0 0 1 5.53 15.65 76.38 76.38 0 0 1 2.92 18.24q0 11.22-9.62 23.55a80.51 80.51 0 0 1-23.68 20.08 3 3 0 0 1-3.08 0 28 28 0 0 1-4.93-4.08Z" class="cls-1"></path><path d="M83.43 33.37a31.34 31.34 0 0 0 8.17 31.5c30.31 29.05 42.47 72.58 30.44 112-12.74 41.8-50.4 71.87-94.28 77a31.39 31.39 0 0 0-27.7 30.36L0 286a31.45 31.45 0 0 0 34.87 32.17c67.34-7.59 127-54.43 147.4-123.4a173.93 173.93 0 0 0-47-175.25 31.47 31.47 0 0 0-51.84 13.85Z" class="cls-2"></path><path d="M562.49 120.42a153.67 153.67 0 0 0-43.24-72.67A170.41 170.41 0 0 0 442.14 6 192.72 192.72 0 0 0 396.57.47c-5.39 0-10.84.24-16.18.71a35.71 35.71 0 0 0-22.47 10.46 31.13 31.13 0 0 0-9.07 21.82V34c0 13.64 12 24.74 26.77 24.74a29.8 29.8 0 0 0 4.21-.3 118.22 118.22 0 0 1 16.74-1.19c1.5 0 3 0 4.53.09 57 2.14 103.27 45.39 105.39 98.46 1.12 28.07-9.79 54.67-30.73 74.91s-49.08 31.41-79.19 31.41a117.74 117.74 0 0 1-19.79-1.67 26.88 26.88 0 0 0-4.38-.37 24.47 24.47 0 0 0-16.54 6.26 20.78 20.78 0 0 0-7 15.51c0 19.38 16.13 35.53 36.72 36.75 3.64.22 7.34.33 11 .33a179.38 179.38 0 0 0 75.86-16.54 171.29 171.29 0 0 0 58.56-44.3 155.47 155.47 0 0 0 32.37-63 151.65 151.65 0 0 0-.88-74.67Z" style="fill:#ffde6a"></path><rect width="61.28" height="318.96" x="604.49" class="cls-1" rx="29.74"></rect><rect width="61.28" height="318.96" x="238.65" class="cls-1" rx="29.74"></rect><path d="M794.06 33.37a31.32 31.32 0 0 0 8.18 31.5c30.31 29.05 42.46 72.58 30.43 112-12.73 41.8-50.4 71.87-94.27 77a31.41 31.41 0 0 0-27.71 30.36v1.74a31.44 31.44 0 0 0 34.86 32.17c67.34-7.59 127-54.43 147.4-123.4a173.9 173.9 0 0 0-47-175.25 31.47 31.47 0 0 0-51.89 13.88Z" class="cls-2"></path></g></g></svg> 